<svg width="10" height="10" viewBox="0 0 10 10" fill="none" xmlns="http://www.w3.org/2000/svg">
<g clip-path="url(#clip0_77_964)">
<path d="M9.61417 1.60084C9.49995 1.55349 9.37426 1.54109 9.253 1.5652C9.13173 1.5893 9.02034 1.64883 8.93292 1.73625L7.38667 3.28292L5.44208 1.33834C5.38404 1.28026 5.31512 1.23418 5.23927 1.20275C5.16341 1.17132 5.08211 1.15514 5 1.15514C4.91789 1.15514 4.83658 1.17132 4.76073 1.20275C4.68488 1.23418 4.61596 1.28026 4.55792 1.33834L2.61333 3.28292L1.06708 1.73625C0.979675 1.64879 0.868285 1.58922 0.747009 1.56508C0.625734 1.54094 0.500023 1.55332 0.385785 1.60064C0.271546 1.64797 0.173913 1.72812 0.105241 1.83096C0.0365692 1.93379 -5.59858e-05 2.05468 6.42367e-08 2.17834V6.875C0.000771838 7.48255 0.242462 8.065 0.672066 8.4946C1.10167 8.92421 1.68412 9.1659 2.29167 9.16667H7.70833C8.31588 9.1659 8.89833 8.92421 9.32793 8.4946C9.75754 8.065 9.99923 7.48255 10 6.875V2.17834C10 2.05471 9.96336 1.93385 9.89468 1.83106C9.82601 1.72826 9.72838 1.64814 9.61417 1.60084ZM8.75 6.875C8.75 7.15127 8.64025 7.41622 8.4449 7.61157C8.24955 7.80692 7.9846 7.91667 7.70833 7.91667H2.29167C2.0154 7.91667 1.75045 7.80692 1.5551 7.61157C1.35975 7.41622 1.25 7.15127 1.25 6.875V3.68709L2.17167 4.60875C2.28887 4.72592 2.44781 4.79174 2.61354 4.79174C2.77927 4.79174 2.93821 4.72592 3.05542 4.60875L5 2.66417L6.94458 4.60875C7.06179 4.72592 7.22073 4.79174 7.38646 4.79174C7.55219 4.79174 7.71113 4.72592 7.82833 4.60875L8.75 3.68709V6.875Z" fill="#9F7300"/>
</g>
<defs>
<clipPath id="clip0_77_964">
<rect width="10" height="10" fill="white"/>
</clipPath>
</defs>
</svg>
