<svg width="10" height="10" viewBox="0 0 10 10" fill="none" xmlns="http://www.w3.org/2000/svg">
<g clip-path="url(#clip0_77_928)">
<path d="M9.61417 1.60082C9.49995 1.55348 9.37426 1.54108 9.253 1.56518C9.13173 1.58929 9.02034 1.64881 8.93292 1.73624L7.38667 3.2829L5.44208 1.33832C5.38404 1.28024 5.31512 1.23417 5.23927 1.20273C5.16341 1.1713 5.08211 1.15512 5 1.15512C4.91789 1.15512 4.83658 1.1713 4.76073 1.20273C4.68488 1.23417 4.61596 1.28024 4.55792 1.33832L2.61333 3.2829L1.06708 1.73624C0.979675 1.64877 0.868285 1.5892 0.747009 1.56506C0.625734 1.54092 0.500023 1.5533 0.385785 1.60063C0.271546 1.64796 0.173913 1.72811 0.105241 1.83094C0.0365692 1.93377 -5.59858e-05 2.05467 6.42367e-08 2.17832V6.87499C0.000771838 7.48254 0.242462 8.06498 0.672066 8.49459C1.10167 8.92419 1.68412 9.16588 2.29167 9.16665H7.70833C8.31588 9.16588 8.89833 8.92419 9.32793 8.49459C9.75754 8.06498 9.99923 7.48254 10 6.87499V2.17832C10 2.05469 9.96336 1.93384 9.89468 1.83104C9.82601 1.72825 9.72838 1.64813 9.61417 1.60082ZM8.75 6.87499C8.75 7.15126 8.64025 7.41621 8.4449 7.61156C8.24955 7.80691 7.9846 7.91665 7.70833 7.91665H2.29167C2.0154 7.91665 1.75045 7.80691 1.5551 7.61156C1.35975 7.41621 1.25 7.15126 1.25 6.87499V3.68707L2.17167 4.60874C2.28887 4.72591 2.44781 4.79173 2.61354 4.79173C2.77927 4.79173 2.93821 4.72591 3.05542 4.60874L5 2.66415L6.94458 4.60874C7.06179 4.72591 7.22073 4.79173 7.38646 4.79173C7.55219 4.79173 7.71113 4.72591 7.82833 4.60874L8.75 3.68707V6.87499Z" fill="#DAC935"/>
</g>
<defs>
<clipPath id="clip0_77_928">
<rect width="10" height="10" fill="white"/>
</clipPath>
</defs>
</svg>
