<svg width="24" height="24" viewBox="0 0 24 24" fill="none" xmlns="http://www.w3.org/2000/svg">
<path fill-rule="evenodd" clip-rule="evenodd" d="M12 1.59521C6.47715 1.59521 2 6.07237 2 11.5952C2 17.1181 6.47715 21.5952 12 21.5952C17.5228 21.5952 22 17.1181 22 11.5952C22 6.07237 17.5228 1.59521 12 1.59521ZM13.971 6.68748C14.984 6.84331 15.9531 7.117 16.8593 7.49358C18.4439 9.59519 19.2312 11.9655 18.9405 14.6994C17.7281 15.5045 16.5521 15.9929 15.3959 16.3126C15.1096 15.964 14.8563 15.5924 14.6372 15.2029C15.0545 15.062 15.4553 14.8882 15.8341 14.6854C15.735 14.6195 15.637 14.5506 15.5412 14.4797C13.2651 15.4366 10.7622 15.4366 8.45857 14.4797C8.36388 14.5506 8.26587 14.6195 8.16567 14.6854C8.54336 14.8872 8.94308 15.061 9.36041 15.2018C9.14129 15.5924 8.88692 15.963 8.60172 16.3116C7.44661 15.992 6.27167 15.5035 5.0593 14.6994C4.81154 12.3411 5.30706 9.9488 7.13498 7.49557C8.04124 7.118 9.01136 6.84331 10.0255 6.68748C10.1511 6.88726 10.2997 7.15596 10.3999 7.36972C11.457 7.22588 12.5241 7.22588 13.601 7.36972C13.7012 7.15596 13.8465 6.88726 13.971 6.68748ZM8.41562 11.9775C8.41562 12.6757 8.98273 13.2491 9.67425 13.2491C10.3779 13.2491 10.934 12.6757 10.9329 11.9775C10.945 11.2783 10.3779 10.7049 9.67425 10.7049C8.97062 10.7049 8.41562 11.2793 8.41562 11.9775ZM13.0669 11.9775C13.0669 12.6757 13.634 13.2491 14.3255 13.2491C15.0292 13.2491 15.5842 12.6757 15.5842 11.9775C15.5963 11.2783 15.0292 10.7049 14.3255 10.7049C13.6219 10.7049 13.0669 11.2793 13.0669 11.9775Z" fill="#B9BADB"/>
</svg>
