<svg width="16" height="24" viewBox="0 0 16 24" fill="none" xmlns="http://www.w3.org/2000/svg">
<path d="M4.66671 18.6666V11.3333M1.33337 12.6666V17.3333C1.33337 18.0696 1.93033 18.6666 2.66671 18.6666H11.6175C12.6047 18.6666 13.4442 17.9464 13.5943 16.9707L14.3122 12.304C14.4986 11.0925 13.5613 9.99992 12.3355 9.99992H10C9.63185 9.99992 9.33337 9.70144 9.33337 9.33325V6.97714C9.33337 6.06925 8.59738 5.33325 7.68948 5.33325C7.47293 5.33325 7.27669 5.46078 7.18875 5.65867L4.84267 10.9373C4.73567 11.1781 4.49692 11.3333 4.23346 11.3333H2.66671C1.93033 11.3333 1.33337 11.9302 1.33337 12.6666Z" stroke="#F7CB54" stroke-width="1.3" stroke-linecap="round" stroke-linejoin="round"/>
</svg>
