<svg width="130" height="48" viewBox="0 0 130 48" fill="none" xmlns="http://www.w3.org/2000/svg">
<path d="M3.64645 47.3536C3.84171 47.5488 4.15829 47.5488 4.35355 47.3536L7.53553 44.1716C7.7308 43.9763 7.7308 43.6597 7.53553 43.4645C7.34027 43.2692 7.02369 43.2692 6.82843 43.4645L4 46.2929L1.17157 43.4645C0.976311 43.2692 0.659728 43.2692 0.464466 43.4645C0.269204 43.6597 0.269204 43.9763 0.464466 44.1716L3.64645 47.3536ZM4.5 47C4.5 38.336 9.33753 29.3006 15.9944 22.4917C22.6605 15.6735 31.0308 11.2082 37.978 11.5149L38.0221 10.5158C30.6677 10.1912 22.0379 14.8799 15.2794 21.7926C8.51167 28.7148 3.5 37.9873 3.5 47H4.5Z" fill="#436BF7"/>
<path d="M43.233 5.81818H44.7045L48.1648 14.2699H48.2841L51.7443 5.81818H53.2159V16H52.0625V8.2642H51.9631L48.7812 16H47.6676L44.4858 8.2642H44.3864V16H43.233V5.81818ZM58.6312 16.1591C57.9418 16.1591 57.3369 15.995 56.8166 15.6669C56.2995 15.3388 55.8952 14.8797 55.6035 14.2898C55.3152 13.6998 55.171 13.0104 55.171 12.2216C55.171 11.4261 55.3152 10.7318 55.6035 10.1385C55.8952 9.54522 56.2995 9.08452 56.8166 8.75639C57.3369 8.42827 57.9418 8.2642 58.6312 8.2642C59.3206 8.2642 59.9238 8.42827 60.4409 8.75639C60.9612 9.08452 61.3656 9.54522 61.6539 10.1385C61.9456 10.7318 62.0914 11.4261 62.0914 12.2216C62.0914 13.0104 61.9456 13.6998 61.6539 14.2898C61.3656 14.8797 60.9612 15.3388 60.4409 15.6669C59.9238 15.995 59.3206 16.1591 58.6312 16.1591ZM58.6312 15.1051C59.1549 15.1051 59.5858 14.9709 59.9238 14.7024C60.2619 14.4339 60.5121 14.081 60.6745 13.6435C60.8369 13.206 60.9181 12.732 60.9181 12.2216C60.9181 11.7112 60.8369 11.2356 60.6745 10.7947C60.5121 10.3539 60.2619 9.99763 59.9238 9.72585C59.5858 9.45407 59.1549 9.31818 58.6312 9.31818C58.1075 9.31818 57.6767 9.45407 57.3386 9.72585C57.0005 9.99763 56.7503 10.3539 56.5879 10.7947C56.4255 11.2356 56.3443 11.7112 56.3443 12.2216C56.3443 12.732 56.4255 13.206 56.5879 13.6435C56.7503 14.081 57.0005 14.4339 57.3386 14.7024C57.6767 14.9709 58.1075 15.1051 58.6312 15.1051ZM69.2915 10.0739L68.2376 10.3722C68.1713 10.1965 68.0735 10.0258 67.9442 9.86009C67.8183 9.69105 67.646 9.55185 67.4272 9.44247C67.2085 9.3331 66.9284 9.27841 66.587 9.27841C66.1197 9.27841 65.7302 9.38613 65.4187 9.60156C65.1104 9.81368 64.9563 10.0838 64.9563 10.4119C64.9563 10.7036 65.0624 10.9339 65.2745 11.103C65.4866 11.272 65.8181 11.4129 66.2688 11.5256L67.4023 11.804C68.0851 11.9697 68.5939 12.2232 68.9286 12.5646C69.2634 12.9027 69.4308 13.3385 69.4308 13.8722C69.4308 14.3097 69.3048 14.7008 69.0529 15.0455C68.8043 15.3902 68.4563 15.6619 68.0089 15.8608C67.5614 16.0597 67.0411 16.1591 66.4478 16.1591C65.6689 16.1591 65.0243 15.9901 64.5138 15.652C64.0034 15.3139 63.6803 14.8201 63.5444 14.1705L64.658 13.892C64.7641 14.303 64.9646 14.6113 65.2596 14.8168C65.5579 15.0223 65.9473 15.125 66.4279 15.125C66.9748 15.125 67.409 15.009 67.7305 14.777C68.0553 14.5417 68.2177 14.2599 68.2177 13.9318C68.2177 13.6667 68.1249 13.4446 67.9393 13.2656C67.7537 13.0833 67.4686 12.9474 67.0842 12.858L65.8114 12.5597C65.1121 12.3939 64.5984 12.1371 64.2702 11.7891C63.9454 11.4377 63.783 10.9986 63.783 10.4716C63.783 10.0407 63.904 9.65956 64.146 9.32812C64.3912 8.99669 64.7243 8.73651 65.1452 8.54758C65.5695 8.35866 66.0501 8.2642 66.587 8.2642C67.3427 8.2642 67.936 8.42992 68.3668 8.76136C68.801 9.0928 69.1093 9.5303 69.2915 10.0739ZM74.5179 8.36364V9.35795H70.5605V8.36364H74.5179ZM71.714 6.53409H72.8873V13.8125C72.8873 14.1439 72.9353 14.3925 73.0314 14.5582C73.1309 14.7206 73.2568 14.83 73.4093 14.8864C73.565 14.9394 73.7291 14.9659 73.9015 14.9659C74.0307 14.9659 74.1368 14.9593 74.2196 14.946C74.3025 14.9295 74.3688 14.9162 74.4185 14.9062L74.6571 15.9602C74.5776 15.9901 74.4666 16.0199 74.324 16.0497C74.1815 16.0829 74.0009 16.0994 73.7821 16.0994C73.4507 16.0994 73.1259 16.0282 72.8077 15.8857C72.4928 15.7431 72.231 15.526 72.0222 15.2344C71.8167 14.9427 71.714 14.5748 71.714 14.1307V6.53409ZM80.2203 18.8636V8.36364H81.3539V9.5767H81.4931C81.5792 9.44413 81.6986 9.27509 81.851 9.0696C82.0068 8.8608 82.2289 8.67519 82.5172 8.51278C82.8089 8.34706 83.2033 8.2642 83.7005 8.2642C84.3435 8.2642 84.9102 8.42495 85.4007 8.74645C85.8913 9.06794 86.2741 9.52367 86.5492 10.1136C86.8243 10.7036 86.9618 11.3996 86.9618 12.2017C86.9618 13.0104 86.8243 13.7114 86.5492 14.3047C86.2741 14.8946 85.8929 15.352 85.4057 15.6768C84.9185 15.9983 84.3567 16.1591 83.7203 16.1591C83.2298 16.1591 82.8371 16.0779 82.5421 15.9155C82.2471 15.7498 82.0201 15.5625 81.861 15.3537C81.7019 15.1416 81.5792 14.9659 81.4931 14.8267H81.3936V18.8636H80.2203ZM81.3738 12.1818C81.3738 12.7585 81.4583 13.2673 81.6273 13.7081C81.7963 14.1456 82.0433 14.4886 82.3681 14.7372C82.6929 14.9825 83.0906 15.1051 83.5613 15.1051C84.0518 15.1051 84.4611 14.9759 84.7892 14.7173C85.1207 14.4555 85.3693 14.1042 85.535 13.6634C85.704 13.2192 85.7885 12.7254 85.7885 12.1818C85.7885 11.6449 85.7057 11.161 85.54 10.7301C85.3775 10.2959 85.1306 9.95289 84.7992 9.70099C84.4711 9.44579 84.0584 9.31818 83.5613 9.31818C83.084 9.31818 82.6829 9.43916 82.3581 9.68111C82.0333 9.91974 81.7881 10.2545 81.6223 10.6854C81.4566 11.1129 81.3738 11.6117 81.3738 12.1818ZM91.8539 16.1591C91.1645 16.1591 90.5596 15.995 90.0392 15.6669C89.5222 15.3388 89.1178 14.8797 88.8262 14.2898C88.5378 13.6998 88.3936 13.0104 88.3936 12.2216C88.3936 11.4261 88.5378 10.7318 88.8262 10.1385C89.1178 9.54522 89.5222 9.08452 90.0392 8.75639C90.5596 8.42827 91.1645 8.2642 91.8539 8.2642C92.5433 8.2642 93.1465 8.42827 93.6635 8.75639C94.1839 9.08452 94.5882 9.54522 94.8766 10.1385C95.1683 10.7318 95.3141 11.4261 95.3141 12.2216C95.3141 13.0104 95.1683 13.6998 94.8766 14.2898C94.5882 14.8797 94.1839 15.3388 93.6635 15.6669C93.1465 15.995 92.5433 16.1591 91.8539 16.1591ZM91.8539 15.1051C92.3775 15.1051 92.8084 14.9709 93.1465 14.7024C93.4846 14.4339 93.7348 14.081 93.8972 13.6435C94.0596 13.206 94.1408 12.732 94.1408 12.2216C94.1408 11.7112 94.0596 11.2356 93.8972 10.7947C93.7348 10.3539 93.4846 9.99763 93.1465 9.72585C92.8084 9.45407 92.3775 9.31818 91.8539 9.31818C91.3302 9.31818 90.8993 9.45407 90.5613 9.72585C90.2232 9.99763 89.973 10.3539 89.8105 10.7947C89.6481 11.2356 89.5669 11.7112 89.5669 12.2216C89.5669 12.732 89.6481 13.206 89.8105 13.6435C89.973 14.081 90.2232 14.4339 90.5613 14.7024C90.8993 14.9709 91.3302 15.1051 91.8539 15.1051ZM97.1051 18.8636V8.36364H98.2386V9.5767H98.3778C98.464 9.44413 98.5833 9.27509 98.7358 9.0696C98.8916 8.8608 99.1136 8.67519 99.402 8.51278C99.6937 8.34706 100.088 8.2642 100.585 8.2642C101.228 8.2642 101.795 8.42495 102.286 8.74645C102.776 9.06794 103.159 9.52367 103.434 10.1136C103.709 10.7036 103.847 11.3996 103.847 12.2017C103.847 13.0104 103.709 13.7114 103.434 14.3047C103.159 14.8946 102.778 15.352 102.29 15.6768C101.803 15.9983 101.241 16.1591 100.605 16.1591C100.115 16.1591 99.7218 16.0779 99.4268 15.9155C99.1319 15.7498 98.9048 15.5625 98.7457 15.3537C98.5866 15.1416 98.464 14.9659 98.3778 14.8267H98.2784V18.8636H97.1051ZM98.2585 12.1818C98.2585 12.7585 98.343 13.2673 98.5121 13.7081C98.6811 14.1456 98.928 14.4886 99.2528 14.7372C99.5777 14.9825 99.9754 15.1051 100.446 15.1051C100.937 15.1051 101.346 14.9759 101.674 14.7173C102.005 14.4555 102.254 14.1042 102.42 13.6634C102.589 13.2192 102.673 12.7254 102.673 12.1818C102.673 11.6449 102.59 11.161 102.425 10.7301C102.262 10.2959 102.015 9.95289 101.684 9.70099C101.356 9.44579 100.943 9.31818 100.446 9.31818C99.9688 9.31818 99.5677 9.43916 99.2429 9.68111C98.9181 9.91974 98.6728 10.2545 98.5071 10.6854C98.3414 11.1129 98.2585 11.6117 98.2585 12.1818ZM110.449 12.8778V8.36364H111.622V16H110.449V14.7074H110.369C110.19 15.0952 109.912 15.425 109.534 15.6967C109.156 15.9652 108.679 16.0994 108.102 16.0994C107.625 16.0994 107.201 15.995 106.83 15.7862C106.458 15.5741 106.167 15.2559 105.955 14.8317C105.742 14.4041 105.636 13.8655 105.636 13.2159V8.36364H106.81V13.1364C106.81 13.6932 106.965 14.1373 107.277 14.4688C107.592 14.8002 107.993 14.9659 108.48 14.9659C108.772 14.9659 109.068 14.8913 109.37 14.7422C109.675 14.593 109.93 14.3643 110.136 14.0561C110.344 13.7479 110.449 13.3551 110.449 12.8778ZM114.944 5.81818V16H113.771V5.81818H114.944ZM119.341 16.179C118.857 16.179 118.417 16.0878 118.023 15.9055C117.629 15.7199 117.315 15.4531 117.083 15.1051C116.851 14.7538 116.735 14.3295 116.735 13.8324C116.735 13.3949 116.822 13.0402 116.994 12.7685C117.166 12.4934 117.397 12.2779 117.685 12.1222C117.973 11.9664 118.292 11.8504 118.64 11.7741C118.991 11.6946 119.344 11.6316 119.699 11.5852C120.163 11.5256 120.539 11.4808 120.827 11.451C121.119 11.4179 121.331 11.3632 121.463 11.2869C121.599 11.2107 121.667 11.0781 121.667 10.8892V10.8494C121.667 10.3589 121.533 9.97775 121.265 9.70597C120.999 9.43419 120.597 9.2983 120.056 9.2983C119.496 9.2983 119.057 9.42093 118.739 9.66619C118.421 9.91146 118.197 10.1733 118.068 10.4517L116.954 10.054C117.153 9.58996 117.418 9.22869 117.75 8.97017C118.084 8.70833 118.449 8.52604 118.843 8.4233C119.241 8.31723 119.632 8.2642 120.017 8.2642C120.262 8.2642 120.544 8.29403 120.862 8.35369C121.183 8.41004 121.493 8.5277 121.792 8.70668C122.093 8.88565 122.343 9.15578 122.542 9.51705C122.741 9.87831 122.841 10.3622 122.841 10.9688V16H121.667V14.9659H121.608C121.528 15.1316 121.395 15.3089 121.21 15.4979C121.024 15.6868 120.777 15.8475 120.469 15.9801C120.161 16.1127 119.785 16.179 119.341 16.179ZM119.52 15.125C119.984 15.125 120.375 15.0339 120.693 14.8516C121.014 14.6693 121.256 14.4339 121.419 14.1456C121.584 13.8572 121.667 13.554 121.667 13.2358V12.1619C121.618 12.2216 121.508 12.2763 121.339 12.326C121.173 12.3724 120.981 12.4138 120.762 12.4503C120.547 12.4834 120.337 12.5133 120.131 12.5398C119.929 12.563 119.765 12.5829 119.639 12.5994C119.334 12.6392 119.049 12.7038 118.784 12.7933C118.522 12.8795 118.31 13.0104 118.147 13.1861C117.988 13.3584 117.909 13.5937 117.909 13.892C117.909 14.2997 118.06 14.608 118.361 14.8168C118.666 15.0223 119.052 15.125 119.52 15.125ZM124.982 16V8.36364H126.116V9.51705H126.195C126.334 9.1392 126.586 8.83262 126.951 8.5973C127.315 8.36198 127.726 8.24432 128.184 8.24432C128.27 8.24432 128.378 8.24597 128.507 8.24929C128.636 8.2526 128.734 8.25758 128.8 8.2642V9.45739C128.76 9.44744 128.669 9.43253 128.527 9.41264C128.388 9.38944 128.24 9.37784 128.084 9.37784C127.713 9.37784 127.382 9.45573 127.09 9.61151C126.802 9.76397 126.573 9.97609 126.404 10.2479C126.238 10.5163 126.155 10.8229 126.155 11.1676V16H124.982Z" fill="#436BF7"/>
</svg>
