<svg width="697" height="362" viewBox="0 0 697 362" fill="none" xmlns="http://www.w3.org/2000/svg">
<g opacity="0.3">
<path d="M-27.3018 -92L-27.3018 446M58.4884 -92L58.4884 446M144.279 -92L144.279 446M230.069 -92L230.069 446M315.859 -92L315.859 446M401.649 -92L401.649 446M487.44 -92V446M573.23 -92L573.23 446M659.02 -92V446M704.417 -5.90571H-73.4141M704.417 79.8313H-73.4141M704.417 165.568H-73.4141M704.417 251.305H-73.4141M704.417 337.043H-73.4141M704.417 422.78H-73.4141" stroke="url(#paint0_radial_2234_447)" stroke-width="2"/>
<path d="M-27.3018 -92L-27.3018 446M58.4884 -92L58.4884 446M144.279 -92L144.279 446M230.069 -92L230.069 446M315.859 -92L315.859 446M401.649 -92L401.649 446M487.44 -92V446M573.23 -92L573.23 446M659.02 -92V446M704.417 -5.90571H-73.4141M704.417 79.8313H-73.4141M704.417 165.568H-73.4141M704.417 251.305H-73.4141M704.417 337.043H-73.4141M704.417 422.78H-73.4141" stroke="url(#paint1_radial_2234_447)" stroke-width="2"/>
</g>
<defs>
<radialGradient id="paint0_radial_2234_447" cx="0" cy="0" r="1" gradientUnits="userSpaceOnUse" gradientTransform="translate(704.417 250.573) rotate(-152.089) scale(223.817 203.413)">
<stop stop-color="white"/>
<stop offset="1" stop-color="white" stop-opacity="0"/>
</radialGradient>
<radialGradient id="paint1_radial_2234_447" cx="0" cy="0" r="1" gradientUnits="userSpaceOnUse" gradientTransform="translate(9.15901 195.219) rotate(-40.4696) scale(350.058 141.833)">
<stop stop-color="white"/>
<stop offset="1" stop-color="white" stop-opacity="0"/>
</radialGradient>
</defs>
</svg>
