<svg width="276" height="37" viewBox="0 0 276 37" fill="none" xmlns="http://www.w3.org/2000/svg">
<path d="M0.206271 6.39205V1.09091H28.0585V6.39205H17.2688V36H10.996V6.39205H0.206271ZM32.9479 36V1.09091H46.0388C48.7206 1.09091 50.9706 1.55682 52.7888 2.48864C54.6183 3.42045 55.999 4.72727 56.9308 6.40909C57.874 8.07955 58.3456 10.0284 58.3456 12.2557C58.3456 14.4943 57.8683 16.4375 56.9138 18.0852C55.9706 19.7216 54.5785 20.9886 52.7376 21.8864C50.8967 22.7727 48.6354 23.2159 45.9535 23.2159H36.6297V17.9659H45.1013C46.6695 17.9659 47.9535 17.75 48.9535 17.3182C49.9535 16.875 50.6922 16.233 51.1695 15.392C51.6581 14.5398 51.9024 13.4943 51.9024 12.2557C51.9024 11.017 51.6581 9.96023 51.1695 9.08523C50.6808 8.19886 49.9365 7.52841 48.9365 7.07386C47.9365 6.60795 46.6467 6.375 45.0672 6.375H39.2717V36H32.9479ZM50.982 20.1818L59.624 36H52.5672L44.0785 20.1818H50.982ZM68.1696 36H61.4196L73.7093 1.09091H81.5162L93.823 36H87.073L77.7491 8.25H77.4764L68.1696 36ZM68.3912 22.3125H86.8003V27.392H68.3912V22.3125ZM109.771 36H97.941V1.09091H110.009C113.475 1.09091 116.452 1.78977 118.941 3.1875C121.441 4.57386 123.361 6.56818 124.702 9.17045C126.043 11.7727 126.714 14.8864 126.714 18.5114C126.714 22.1477 126.038 25.2727 124.685 27.8864C123.344 30.5 121.407 32.5057 118.873 33.9034C116.35 35.3011 113.316 36 109.771 36ZM104.265 30.5284H109.464C111.896 30.5284 113.924 30.0852 115.549 29.1989C117.174 28.3011 118.396 26.9659 119.214 25.1932C120.032 23.4091 120.441 21.1818 120.441 18.5114C120.441 15.8409 120.032 13.625 119.214 11.8636C118.396 10.0909 117.185 8.76705 115.583 7.89205C113.992 7.00568 112.015 6.5625 109.651 6.5625H104.265V30.5284ZM132.242 36V1.09091H154.947V6.39205H138.566V15.8693H153.771V21.1705H138.566V30.6989H155.083V36H132.242ZM189.606 1.09091V36H183.981L167.532 12.2216H167.242V36H160.918V1.09091H166.578L183.009 24.8864H183.316V1.09091H189.606ZM227.21 18.5455C227.21 22.3068 226.505 25.5284 225.096 28.2102C223.698 30.8807 221.789 32.9261 219.369 34.3466C216.96 35.767 214.227 36.4773 211.17 36.4773C208.113 36.4773 205.375 35.767 202.954 34.3466C200.545 32.9148 198.636 30.8636 197.227 28.1932C195.829 25.5114 195.13 22.2955 195.13 18.5455C195.13 14.7841 195.829 11.5682 197.227 8.89773C198.636 6.21591 200.545 4.16477 202.954 2.74432C205.375 1.32386 208.113 0.613635 211.17 0.613635C214.227 0.613635 216.96 1.32386 219.369 2.74432C221.789 4.16477 223.698 6.21591 225.096 8.89773C226.505 11.5682 227.21 14.7841 227.21 18.5455ZM220.852 18.5455C220.852 15.8977 220.437 13.6648 219.608 11.8466C218.789 10.017 217.653 8.63636 216.198 7.70455C214.744 6.76136 213.068 6.28977 211.17 6.28977C209.272 6.28977 207.596 6.76136 206.142 7.70455C204.687 8.63636 203.545 10.017 202.715 11.8466C201.897 13.6648 201.488 15.8977 201.488 18.5455C201.488 21.1932 201.897 23.4318 202.715 25.2614C203.545 27.0795 204.687 28.4602 206.142 29.4034C207.596 30.3352 209.272 30.8011 211.17 30.8011C213.068 30.8011 214.744 30.3352 216.198 29.4034C217.653 28.4602 218.789 27.0795 219.608 25.2614C220.437 23.4318 220.852 21.1932 220.852 18.5455ZM239.164 36L229.312 1.09091H236.113L242.403 26.7443H242.727L249.443 1.09091H255.63L262.363 26.7614H262.67L268.96 1.09091H275.761L265.909 36H259.67L252.681 11.5057H252.409L245.403 36H239.164Z" fill="white"/>
<path d="M0.206271 6.39205V1.09091H28.0585V6.39205H17.2688V36H10.996V6.39205H0.206271ZM32.9479 36V1.09091H46.0388C48.7206 1.09091 50.9706 1.55682 52.7888 2.48864C54.6183 3.42045 55.999 4.72727 56.9308 6.40909C57.874 8.07955 58.3456 10.0284 58.3456 12.2557C58.3456 14.4943 57.8683 16.4375 56.9138 18.0852C55.9706 19.7216 54.5785 20.9886 52.7376 21.8864C50.8967 22.7727 48.6354 23.2159 45.9535 23.2159H36.6297V17.9659H45.1013C46.6695 17.9659 47.9535 17.75 48.9535 17.3182C49.9535 16.875 50.6922 16.233 51.1695 15.392C51.6581 14.5398 51.9024 13.4943 51.9024 12.2557C51.9024 11.017 51.6581 9.96023 51.1695 9.08523C50.6808 8.19886 49.9365 7.52841 48.9365 7.07386C47.9365 6.60795 46.6467 6.375 45.0672 6.375H39.2717V36H32.9479ZM50.982 20.1818L59.624 36H52.5672L44.0785 20.1818H50.982ZM68.1696 36H61.4196L73.7093 1.09091H81.5162L93.823 36H87.073L77.7491 8.25H77.4764L68.1696 36ZM68.3912 22.3125H86.8003V27.392H68.3912V22.3125ZM109.771 36H97.941V1.09091H110.009C113.475 1.09091 116.452 1.78977 118.941 3.1875C121.441 4.57386 123.361 6.56818 124.702 9.17045C126.043 11.7727 126.714 14.8864 126.714 18.5114C126.714 22.1477 126.038 25.2727 124.685 27.8864C123.344 30.5 121.407 32.5057 118.873 33.9034C116.35 35.3011 113.316 36 109.771 36ZM104.265 30.5284H109.464C111.896 30.5284 113.924 30.0852 115.549 29.1989C117.174 28.3011 118.396 26.9659 119.214 25.1932C120.032 23.4091 120.441 21.1818 120.441 18.5114C120.441 15.8409 120.032 13.625 119.214 11.8636C118.396 10.0909 117.185 8.76705 115.583 7.89205C113.992 7.00568 112.015 6.5625 109.651 6.5625H104.265V30.5284ZM132.242 36V1.09091H154.947V6.39205H138.566V15.8693H153.771V21.1705H138.566V30.6989H155.083V36H132.242ZM189.606 1.09091V36H183.981L167.532 12.2216H167.242V36H160.918V1.09091H166.578L183.009 24.8864H183.316V1.09091H189.606ZM227.21 18.5455C227.21 22.3068 226.505 25.5284 225.096 28.2102C223.698 30.8807 221.789 32.9261 219.369 34.3466C216.96 35.767 214.227 36.4773 211.17 36.4773C208.113 36.4773 205.375 35.767 202.954 34.3466C200.545 32.9148 198.636 30.8636 197.227 28.1932C195.829 25.5114 195.13 22.2955 195.13 18.5455C195.13 14.7841 195.829 11.5682 197.227 8.89773C198.636 6.21591 200.545 4.16477 202.954 2.74432C205.375 1.32386 208.113 0.613635 211.17 0.613635C214.227 0.613635 216.96 1.32386 219.369 2.74432C221.789 4.16477 223.698 6.21591 225.096 8.89773C226.505 11.5682 227.21 14.7841 227.21 18.5455ZM220.852 18.5455C220.852 15.8977 220.437 13.6648 219.608 11.8466C218.789 10.017 217.653 8.63636 216.198 7.70455C214.744 6.76136 213.068 6.28977 211.17 6.28977C209.272 6.28977 207.596 6.76136 206.142 7.70455C204.687 8.63636 203.545 10.017 202.715 11.8466C201.897 13.6648 201.488 15.8977 201.488 18.5455C201.488 21.1932 201.897 23.4318 202.715 25.2614C203.545 27.0795 204.687 28.4602 206.142 29.4034C207.596 30.3352 209.272 30.8011 211.17 30.8011C213.068 30.8011 214.744 30.3352 216.198 29.4034C217.653 28.4602 218.789 27.0795 219.608 25.2614C220.437 23.4318 220.852 21.1932 220.852 18.5455ZM239.164 36L229.312 1.09091H236.113L242.403 26.7443H242.727L249.443 1.09091H255.63L262.363 26.7614H262.67L268.96 1.09091H275.761L265.909 36H259.67L252.681 11.5057H252.409L245.403 36H239.164Z" fill="url(#paint0_radial_2234_445)"/>
<path d="M0.206271 6.39205V1.09091H28.0585V6.39205H17.2688V36H10.996V6.39205H0.206271ZM32.9479 36V1.09091H46.0388C48.7206 1.09091 50.9706 1.55682 52.7888 2.48864C54.6183 3.42045 55.999 4.72727 56.9308 6.40909C57.874 8.07955 58.3456 10.0284 58.3456 12.2557C58.3456 14.4943 57.8683 16.4375 56.9138 18.0852C55.9706 19.7216 54.5785 20.9886 52.7376 21.8864C50.8967 22.7727 48.6354 23.2159 45.9535 23.2159H36.6297V17.9659H45.1013C46.6695 17.9659 47.9535 17.75 48.9535 17.3182C49.9535 16.875 50.6922 16.233 51.1695 15.392C51.6581 14.5398 51.9024 13.4943 51.9024 12.2557C51.9024 11.017 51.6581 9.96023 51.1695 9.08523C50.6808 8.19886 49.9365 7.52841 48.9365 7.07386C47.9365 6.60795 46.6467 6.375 45.0672 6.375H39.2717V36H32.9479ZM50.982 20.1818L59.624 36H52.5672L44.0785 20.1818H50.982ZM68.1696 36H61.4196L73.7093 1.09091H81.5162L93.823 36H87.073L77.7491 8.25H77.4764L68.1696 36ZM68.3912 22.3125H86.8003V27.392H68.3912V22.3125ZM109.771 36H97.941V1.09091H110.009C113.475 1.09091 116.452 1.78977 118.941 3.1875C121.441 4.57386 123.361 6.56818 124.702 9.17045C126.043 11.7727 126.714 14.8864 126.714 18.5114C126.714 22.1477 126.038 25.2727 124.685 27.8864C123.344 30.5 121.407 32.5057 118.873 33.9034C116.35 35.3011 113.316 36 109.771 36ZM104.265 30.5284H109.464C111.896 30.5284 113.924 30.0852 115.549 29.1989C117.174 28.3011 118.396 26.9659 119.214 25.1932C120.032 23.4091 120.441 21.1818 120.441 18.5114C120.441 15.8409 120.032 13.625 119.214 11.8636C118.396 10.0909 117.185 8.76705 115.583 7.89205C113.992 7.00568 112.015 6.5625 109.651 6.5625H104.265V30.5284ZM132.242 36V1.09091H154.947V6.39205H138.566V15.8693H153.771V21.1705H138.566V30.6989H155.083V36H132.242ZM189.606 1.09091V36H183.981L167.532 12.2216H167.242V36H160.918V1.09091H166.578L183.009 24.8864H183.316V1.09091H189.606ZM227.21 18.5455C227.21 22.3068 226.505 25.5284 225.096 28.2102C223.698 30.8807 221.789 32.9261 219.369 34.3466C216.96 35.767 214.227 36.4773 211.17 36.4773C208.113 36.4773 205.375 35.767 202.954 34.3466C200.545 32.9148 198.636 30.8636 197.227 28.1932C195.829 25.5114 195.13 22.2955 195.13 18.5455C195.13 14.7841 195.829 11.5682 197.227 8.89773C198.636 6.21591 200.545 4.16477 202.954 2.74432C205.375 1.32386 208.113 0.613635 211.17 0.613635C214.227 0.613635 216.96 1.32386 219.369 2.74432C221.789 4.16477 223.698 6.21591 225.096 8.89773C226.505 11.5682 227.21 14.7841 227.21 18.5455ZM220.852 18.5455C220.852 15.8977 220.437 13.6648 219.608 11.8466C218.789 10.017 217.653 8.63636 216.198 7.70455C214.744 6.76136 213.068 6.28977 211.17 6.28977C209.272 6.28977 207.596 6.76136 206.142 7.70455C204.687 8.63636 203.545 10.017 202.715 11.8466C201.897 13.6648 201.488 15.8977 201.488 18.5455C201.488 21.1932 201.897 23.4318 202.715 25.2614C203.545 27.0795 204.687 28.4602 206.142 29.4034C207.596 30.3352 209.272 30.8011 211.17 30.8011C213.068 30.8011 214.744 30.3352 216.198 29.4034C217.653 28.4602 218.789 27.0795 219.608 25.2614C220.437 23.4318 220.852 21.1932 220.852 18.5455ZM239.164 36L229.312 1.09091H236.113L242.403 26.7443H242.727L249.443 1.09091H255.63L262.363 26.7614H262.67L268.96 1.09091H275.761L265.909 36H259.67L252.681 11.5057H252.409L245.403 36H239.164Z" fill="url(#paint1_radial_2234_445)"/>
<defs>
<radialGradient id="paint0_radial_2234_445" cx="0" cy="0" r="1" gradientUnits="userSpaceOnUse" gradientTransform="translate(225.932 59.7234) rotate(-158.168) scale(95.1252 312.755)">
<stop stop-color="#17F871"/>
<stop offset="1" stop-color="#17F871" stop-opacity="0"/>
</radialGradient>
<radialGradient id="paint1_radial_2234_445" cx="0" cy="0" r="1" gradientUnits="userSpaceOnUse" gradientTransform="translate(-11.1866 48) rotate(-9.03093) scale(150.684 432.312)">
<stop stop-color="#17F871"/>
<stop offset="1" stop-color="#17F871" stop-opacity="0"/>
</radialGradient>
</defs>
</svg>
