<svg width="24" height="24" viewBox="0 0 24 24" fill="none" xmlns="http://www.w3.org/2000/svg">
<path fill-rule="evenodd" clip-rule="evenodd" d="M22 11.5952C22 17.1181 17.5228 21.5952 12 21.5952C6.47715 21.5952 2 17.1181 2 11.5952C2 6.07237 6.47715 1.59521 12 1.59521C17.5228 1.59521 22 6.07237 22 11.5952ZM12.3584 8.97766C11.3857 9.38221 9.44178 10.2195 6.52658 11.4896C6.05319 11.6779 5.80521 11.8621 5.78264 12.0421C5.74449 12.3465 6.12559 12.4663 6.64456 12.6295C6.71515 12.6517 6.78829 12.6747 6.86328 12.6991C7.37386 12.865 8.06069 13.0592 8.41774 13.0669C8.74162 13.0739 9.10311 12.9404 9.5022 12.6663C12.226 10.8277 13.632 9.89839 13.7203 9.87835C13.7825 9.86422 13.8688 9.84645 13.9273 9.89842C13.9858 9.95039 13.98 10.0488 13.9738 10.0752C13.9361 10.2362 12.4401 11.627 11.6659 12.3467C11.4246 12.5711 11.2534 12.7302 11.2184 12.7666C11.14 12.848 11.0601 12.925 10.9833 12.999C10.509 13.4563 10.1533 13.7992 11.003 14.3592C11.4114 14.6283 11.7381 14.8508 12.0641 15.0728C12.4201 15.3153 12.7752 15.5571 13.2347 15.8583C13.3517 15.935 13.4635 16.0147 13.5724 16.0923C13.9867 16.3877 14.359 16.6531 14.8188 16.6107C15.086 16.5862 15.3621 16.3349 15.5022 15.5855C15.8335 13.8145 16.4847 9.97726 16.6352 8.39603C16.6484 8.25749 16.6318 8.08019 16.6185 8.00236C16.6051 7.92453 16.5773 7.81364 16.4761 7.73155C16.3563 7.63433 16.1714 7.61383 16.0886 7.61528C15.7125 7.62191 15.1355 7.82256 12.3584 8.97766Z" fill="#B9BADB"/>
</svg>
