<svg width="83" height="86" viewBox="0 0 83 86" fill="none" xmlns="http://www.w3.org/2000/svg">
<path d="M46.0564 18.0165L26.3245 23.2735C19.1672 25.1803 16.1229 30.4574 18.047 37.5972L24.5637 61.779C26.5193 69.0359 31.7842 71.9989 38.9415 70.092L58.6734 64.8351C65.946 62.8975 68.8979 57.7454 66.9422 50.4885L60.4256 26.3067C58.5015 19.1669 53.329 16.0789 46.0564 18.0165Z" fill="url(#paint0_linear_47_1823)"/>
<g filter="url(#filter0_f_47_1823)">
<rect width="31.3104" height="26.6457" rx="13.3229" transform="matrix(-0.260204 -0.965554 0.966294 -0.25744 32.5538 61.6561)" fill="#8237FF" fill-opacity="0.5"/>
</g>
<g filter="url(#filter1_b_47_1823)">
<path d="M64.6118 30.5298H44.1838C36.7741 30.5298 32.4598 34.8436 32.4598 42.2353V67.2702C32.4598 74.783 36.7741 79 44.1838 79H64.6118C72.141 79 76.3333 74.783 76.3333 67.2702V42.2353C76.3333 34.8436 72.141 30.5298 64.6118 30.5298Z" fill="#BA90FF" fill-opacity="0.35"/>
<path d="M64.6118 30.0298H44.1838C40.3825 30.0298 37.3111 31.1381 35.1898 33.2569C33.0684 35.3758 31.9598 38.4427 31.9598 42.2353V67.2702C31.9598 71.1214 33.0674 74.1958 35.1906 76.307C37.3134 78.4176 40.3856 79.5 44.1838 79.5H64.6118C68.4679 79.5 71.5413 78.4186 73.6499 76.3056C75.7584 74.1928 76.8333 71.1176 76.8333 67.2702V42.2353C76.8333 38.4466 75.7574 35.3789 73.6507 33.2583C71.5435 31.1371 68.4709 30.0298 64.6118 30.0298Z" stroke="url(#paint1_linear_47_1823)" stroke-linecap="round" stroke-linejoin="round"/>
</g>
<g filter="url(#filter2_bd_47_1823)">
<mask id="path-5-inside-1_47_1823" fill="white">
<path fill-rule="evenodd" clip-rule="evenodd" d="M44.8418 41.8V41.8243C43.7913 41.8243 42.9406 42.6725 42.9406 43.7146C42.9406 44.7567 43.7913 45.605 44.8418 45.605H52.1272C53.1778 45.605 54.0309 44.7567 54.0309 43.688C54.0309 42.6483 53.1778 41.8 52.1272 41.8H44.8418ZM63.9511 56.5596H44.8418C43.7913 56.5596 42.9406 55.7114 42.9406 54.6693C42.9406 53.6272 43.7913 52.7766 44.8418 52.7766H63.9511C64.9992 52.7766 65.8523 53.6272 65.8523 54.6693C65.8523 55.7114 64.9992 56.5596 63.9511 56.5596ZM63.9513 67.6349H44.842C44.1108 67.7318 43.4039 67.3683 43.0139 66.7624C42.6239 66.1323 42.6239 65.3326 43.0139 64.7267C43.4039 64.0966 44.1108 63.7573 44.842 63.83H63.9513C64.9239 63.9269 65.6575 64.7509 65.6575 65.7446C65.6575 66.7115 64.9239 67.538 63.9513 67.6349Z"/>
</mask>
<path fill-rule="evenodd" clip-rule="evenodd" d="M44.8418 41.8V41.8243C43.7913 41.8243 42.9406 42.6725 42.9406 43.7146C42.9406 44.7567 43.7913 45.605 44.8418 45.605H52.1272C53.1778 45.605 54.0309 44.7567 54.0309 43.688C54.0309 42.6483 53.1778 41.8 52.1272 41.8H44.8418ZM63.9511 56.5596H44.8418C43.7913 56.5596 42.9406 55.7114 42.9406 54.6693C42.9406 53.6272 43.7913 52.7766 44.8418 52.7766H63.9511C64.9992 52.7766 65.8523 53.6272 65.8523 54.6693C65.8523 55.7114 64.9992 56.5596 63.9511 56.5596ZM63.9513 67.6349H44.842C44.1108 67.7318 43.4039 67.3683 43.0139 66.7624C42.6239 66.1323 42.6239 65.3326 43.0139 64.7267C43.4039 64.0966 44.1108 63.7573 44.842 63.83H63.9513C64.9239 63.9269 65.6575 64.7509 65.6575 65.7446C65.6575 66.7115 64.9239 67.538 63.9513 67.6349Z" fill="url(#paint2_linear_47_1823)"/>
<path d="M44.8418 41.8243V42.2243H45.2418V41.8243H44.8418ZM44.8418 41.8V41.4H44.4418V41.8H44.8418ZM44.842 67.6349V67.2349H44.8156L44.7894 67.2384L44.842 67.6349ZM63.9513 67.6349V68.0349H63.9712L63.991 68.0329L63.9513 67.6349ZM43.0139 66.7624L42.6737 66.973L42.6776 66.9789L43.0139 66.7624ZM43.0139 64.7267L43.3503 64.9432L43.3541 64.9372L43.0139 64.7267ZM44.842 63.83L44.8024 64.228L44.8222 64.23H44.842V63.83ZM63.9513 63.83L63.991 63.432L63.9712 63.43H63.9513V63.83ZM45.2418 41.8243V41.8H44.4418V41.8243H45.2418ZM43.3406 43.7146C43.3406 42.8952 44.0104 42.2243 44.8418 42.2243V41.4243C43.5722 41.4243 42.5406 42.4498 42.5406 43.7146H43.3406ZM44.8418 45.205C44.0104 45.205 43.3406 44.534 43.3406 43.7146H42.5406C42.5406 44.9795 43.5722 46.005 44.8418 46.005V45.205ZM52.1272 45.205H44.8418V46.005H52.1272V45.205ZM53.6309 43.688C53.6309 44.537 52.9557 45.205 52.1272 45.205V46.005C53.3998 46.005 54.4309 44.9765 54.4309 43.688H53.6309ZM52.1272 42.2C52.9597 42.2 53.6309 42.872 53.6309 43.688H54.4309C54.4309 42.4245 53.3959 41.4 52.1272 41.4V42.2ZM44.8418 42.2H52.1272V41.4H44.8418V42.2ZM44.8418 56.9596H63.9511V56.1596H44.8418V56.9596ZM42.5406 54.6693C42.5406 55.9342 43.5722 56.9596 44.8418 56.9596V56.1596C44.0104 56.1596 43.3406 55.4887 43.3406 54.6693H42.5406ZM44.8418 52.3766C43.5715 52.3766 42.5406 53.4051 42.5406 54.6693H43.3406C43.3406 53.8493 44.011 53.1766 44.8418 53.1766V52.3766ZM63.9511 52.3766H44.8418V53.1766H63.9511V52.3766ZM66.2523 54.6693C66.2523 53.4048 65.2187 52.3766 63.9511 52.3766V53.1766C64.7798 53.1766 65.4523 53.8496 65.4523 54.6693H66.2523ZM63.9511 56.9596C65.218 56.9596 66.2523 55.9345 66.2523 54.6693H65.4523C65.4523 55.4884 64.7805 56.1596 63.9511 56.1596V56.9596ZM44.842 68.0349H63.9513V67.2349H44.842V68.0349ZM42.6776 66.9789C43.1444 67.7042 43.9974 68.1504 44.8946 68.0314L44.7894 67.2384C44.2242 67.3133 43.6634 67.0324 43.3503 66.5459L42.6776 66.9789ZM42.6776 64.5102C42.2011 65.2504 42.2056 66.2165 42.6738 66.9729L43.3541 66.5519C43.0423 66.0482 43.0468 65.4147 43.3503 64.9432L42.6776 64.5102ZM44.8816 63.432C44.0015 63.3444 43.1458 63.7535 42.6738 64.5162L43.3541 64.9372C43.662 64.4397 44.22 64.1701 44.8024 64.228L44.8816 63.432ZM63.9513 63.43H44.842V64.23H63.9513V63.43ZM66.0575 65.7446C66.0575 64.5511 65.1737 63.5499 63.991 63.432L63.9117 64.228C64.674 64.304 65.2575 64.9507 65.2575 65.7446H66.0575ZM63.991 68.0329C65.1709 67.9153 66.0575 66.9142 66.0575 65.7446H65.2575C65.2575 66.5089 64.6768 67.1606 63.9117 67.2369L63.991 68.0329Z" fill="url(#paint3_linear_47_1823)" mask="url(#path-5-inside-1_47_1823)"/>
</g>
<defs>
<filter id="filter0_f_47_1823" x="0.411499" y="0.541748" width="81.8851" height="85.1372" filterUnits="userSpaceOnUse" color-interpolation-filters="sRGB">
<feFlood flood-opacity="0" result="BackgroundImageFix"/>
<feBlend mode="normal" in="SourceGraphic" in2="BackgroundImageFix" result="shape"/>
<feGaussianBlur stdDeviation="13.5" result="effect1_foregroundBlur_47_1823"/>
</filter>
<filter id="filter1_b_47_1823" x="7.45984" y="5.52979" width="93.8735" height="98.4702" filterUnits="userSpaceOnUse" color-interpolation-filters="sRGB">
<feFlood flood-opacity="0" result="BackgroundImageFix"/>
<feGaussianBlur in="BackgroundImageFix" stdDeviation="12"/>
<feComposite in2="SourceAlpha" operator="in" result="effect1_backgroundBlur_47_1823"/>
<feBlend mode="normal" in="SourceGraphic" in2="effect1_backgroundBlur_47_1823" result="shape"/>
</filter>
<filter id="filter2_bd_47_1823" x="27.7214" y="26.8" width="53.1309" height="55.8505" filterUnits="userSpaceOnUse" color-interpolation-filters="sRGB">
<feFlood flood-opacity="0" result="BackgroundImageFix"/>
<feGaussianBlur in="BackgroundImageFix" stdDeviation="7.5"/>
<feComposite in2="SourceAlpha" operator="in" result="effect1_backgroundBlur_47_1823"/>
<feColorMatrix in="SourceAlpha" type="matrix" values="0 0 0 0 0 0 0 0 0 0 0 0 0 0 0 0 0 0 127 0" result="hardAlpha"/>
<feOffset dx="5" dy="5"/>
<feGaussianBlur stdDeviation="5"/>
<feColorMatrix type="matrix" values="0 0 0 0 0.577356 0 0 0 0 0.359375 0 0 0 0 0.9375 0 0 0 0.5 0"/>
<feBlend mode="normal" in2="effect1_backgroundBlur_47_1823" result="effect2_dropShadow_47_1823"/>
<feBlend mode="normal" in="SourceGraphic" in2="effect2_dropShadow_47_1823" result="shape"/>
</filter>
<linearGradient id="paint0_linear_47_1823" x1="36.1893" y1="20.6453" x2="48.6722" y2="67.4996" gradientUnits="userSpaceOnUse">
<stop stop-color="#BC94FF"/>
<stop offset="1" stop-color="#9F66FF"/>
</linearGradient>
<linearGradient id="paint1_linear_47_1823" x1="39.4438" y1="36.1766" x2="70.8673" y2="71.4046" gradientUnits="userSpaceOnUse">
<stop stop-color="white" stop-opacity="0.25"/>
<stop offset="1" stop-color="white" stop-opacity="0"/>
</linearGradient>
<linearGradient id="paint2_linear_47_1823" x1="64.2124" y1="46.4681" x2="38.4413" y2="47.22" gradientUnits="userSpaceOnUse">
<stop stop-color="white"/>
<stop offset="1" stop-color="white" stop-opacity="0.2"/>
</linearGradient>
<linearGradient id="paint3_linear_47_1823" x1="46.4035" y1="44.8117" x2="63.1834" y2="63.4076" gradientUnits="userSpaceOnUse">
<stop stop-color="white" stop-opacity="0.25"/>
<stop offset="1" stop-color="white" stop-opacity="0"/>
</linearGradient>
</defs>
</svg>
