<svg width="75" height="70" viewBox="0 0 75 70" fill="none" xmlns="http://www.w3.org/2000/svg">
<path d="M40.0211 8.4351L18.3638 14.4624C10.4716 16.6589 7.17198 22.4469 9.24049 30.4661L14.9113 52.4509C16.9799 60.4701 22.6234 63.7692 30.5157 61.5728L52.173 55.5454C60.0652 53.349 63.3442 47.5667 61.2757 39.5475L55.6049 17.5627C53.5363 9.54346 47.9134 6.23865 40.0211 8.4351Z" fill="url(#paint0_linear_47_1781)"/>
<g opacity="0.5" filter="url(#filter0_f_47_1781)">
<path d="M38.5997 18.1984L24.2874 22.1815C19.0719 23.633 16.8539 27.3131 18.155 32.3569L21.7217 46.1844C23.0227 51.2281 26.7149 53.2634 31.9305 51.8119L46.2427 47.8288C51.4583 46.3773 53.6626 42.701 52.3615 37.6572L48.7948 23.8297C47.4938 18.786 43.8152 16.7469 38.5997 18.1984Z" fill="#E31352"/>
</g>
<g filter="url(#filter1_b_47_1781)">
<path d="M54.88 19.9999H34.1696C26.0718 19.9999 20.6255 25.8309 20.6255 34.5039V54.5204C20.6255 63.1689 26.0718 68.9999 34.1696 68.9999H54.88C62.9778 68.9999 68.4002 63.1689 68.4002 54.5204V34.5039C68.4002 25.8309 62.9778 19.9999 54.88 19.9999Z" fill="#FF749F" fill-opacity="0.35"/>
<path d="M54.88 19.4999H34.1696C29.9952 19.4999 26.4724 21.0059 23.9954 23.6582C21.5213 26.3075 20.1255 30.0626 20.1255 34.5039V54.5204C20.1255 58.9498 21.5215 62.6987 23.9957 65.3448C26.4725 67.9939 29.9953 69.4999 34.1696 69.4999H54.88C59.0544 69.4999 62.5714 67.9938 65.0424 65.3444C67.5105 62.6981 68.9002 58.9492 68.9002 54.5204V34.5039C68.9002 30.0632 67.5107 26.3082 65.0426 23.6587C62.5716 21.006 59.0545 19.4999 54.88 19.4999Z" stroke="url(#paint1_linear_47_1781)" stroke-linecap="round" stroke-linejoin="round"/>
</g>
<g filter="url(#filter2_b_47_1781)">
<path d="M70.9345 16.4001C68.996 16.4001 67.4246 18.0119 67.4246 20.0001C67.4246 21.9884 68.996 23.6002 70.9345 23.6002C72.8731 23.6002 74.4445 21.9884 74.4445 20.0001C74.4445 19.0454 74.0747 18.1297 73.4165 17.4546C72.7582 16.7794 71.8654 16.4001 70.9345 16.4001Z" fill="url(#paint2_linear_47_1781)"/>
</g>
<g filter="url(#filter3_bd_47_1781)">
<path d="M57.0105 40.1611L50.1839 49.1962C49.8967 49.5889 49.4659 49.8451 48.9905 49.906C48.5151 49.9668 48.036 49.8271 47.6633 49.5189L41.1097 44.2484L35.2073 52.0788C34.7799 52.775 33.9474 53.0878 33.1818 52.8399C32.4162 52.592 31.9106 51.846 31.9515 51.0247C31.948 50.6184 32.0815 50.2232 32.3296 49.9061L39.3873 40.5698C39.6711 40.1802 40.0961 39.9242 40.5664 39.8594C41.0368 39.7946 41.5127 39.9266 41.8869 40.2256L48.4405 45.5176L54.1958 37.9238C54.4726 37.5323 54.8924 37.2724 55.3595 37.2034C55.8266 37.1345 56.3011 37.2625 56.6744 37.5581C57.4458 38.1768 57.5949 39.3126 57.0105 40.118V40.1611Z" fill="url(#paint3_linear_47_1781)"/>
<path d="M50.0243 49.0756L50.0243 49.0756L50.0225 49.0781C49.7671 49.4273 49.3851 49.6538 48.9651 49.7076C48.5452 49.7614 48.1213 49.6381 47.7907 49.3647L47.7886 49.363L41.2351 44.0925L41.0742 43.9632L40.95 44.128L35.0476 51.9584L35.0419 51.9661L35.0369 51.9742C34.6567 52.5934 33.9193 52.8684 33.2434 52.6496C32.5665 52.4304 32.1147 51.7684 32.1513 51.0347L32.1516 51.0347L32.1515 51.023C32.1484 50.6614 32.2672 50.3105 32.4872 50.0293L32.4872 50.0293L32.4892 50.0267L39.5469 40.6904L39.5469 40.6904L39.549 40.6876C39.8013 40.3412 40.1782 40.1147 40.5937 40.0575C41.009 40.0003 41.4299 40.1167 41.7616 40.3815C41.7618 40.3816 41.7619 40.3817 41.7621 40.3818L48.3148 45.6732L48.4753 45.8028L48.5999 45.6384L54.3552 38.0446L54.3553 38.0447L54.3592 38.0392C54.6049 37.6916 54.9767 37.4621 55.3887 37.4013C55.8005 37.3405 56.2194 37.4531 56.5498 37.7145C57.2367 38.2659 57.3709 39.2808 56.8486 40.0006L56.8105 40.0531V40.094L50.0243 49.0756Z" stroke="url(#paint4_linear_47_1781)" stroke-width="0.4"/>
</g>
<defs>
<filter id="filter0_f_47_1781" x="0.790894" y="0.741211" width="68.936" height="68.5283" filterUnits="userSpaceOnUse" color-interpolation-filters="sRGB">
<feFlood flood-opacity="0" result="BackgroundImageFix"/>
<feBlend mode="normal" in="SourceGraphic" in2="BackgroundImageFix" result="shape"/>
<feGaussianBlur stdDeviation="8.5" result="effect1_foregroundBlur_47_1781"/>
</filter>
<filter id="filter1_b_47_1781" x="-4.37451" y="-5.00012" width="97.7748" height="99" filterUnits="userSpaceOnUse" color-interpolation-filters="sRGB">
<feFlood flood-opacity="0" result="BackgroundImageFix"/>
<feGaussianBlur in="BackgroundImageFix" stdDeviation="12"/>
<feComposite in2="SourceAlpha" operator="in" result="effect1_backgroundBlur_47_1781"/>
<feBlend mode="normal" in="SourceGraphic" in2="effect1_backgroundBlur_47_1781" result="shape"/>
</filter>
<filter id="filter2_b_47_1781" x="52.4246" y="1.40015" width="37.02" height="37.2" filterUnits="userSpaceOnUse" color-interpolation-filters="sRGB">
<feFlood flood-opacity="0" result="BackgroundImageFix"/>
<feGaussianBlur in="BackgroundImageFix" stdDeviation="7.5"/>
<feComposite in2="SourceAlpha" operator="in" result="effect1_backgroundBlur_47_1781"/>
<feBlend mode="normal" in="SourceGraphic" in2="effect1_backgroundBlur_47_1781" result="shape"/>
</filter>
<filter id="filter3_bd_47_1781" x="16.9492" y="22.1852" width="55.4178" height="45.7389" filterUnits="userSpaceOnUse" color-interpolation-filters="sRGB">
<feFlood flood-opacity="0" result="BackgroundImageFix"/>
<feGaussianBlur in="BackgroundImageFix" stdDeviation="7.5"/>
<feComposite in2="SourceAlpha" operator="in" result="effect1_backgroundBlur_47_1781"/>
<feColorMatrix in="SourceAlpha" type="matrix" values="0 0 0 0 0 0 0 0 0 0 0 0 0 0 0 0 0 0 127 0" result="hardAlpha"/>
<feOffset dx="5" dy="5"/>
<feGaussianBlur stdDeviation="5"/>
<feColorMatrix type="matrix" values="0 0 0 0 1 0 0 0 0 0.321569 0 0 0 0 0.54902 0 0 0 0.5 0"/>
<feBlend mode="normal" in2="effect1_backgroundBlur_47_1781" result="effect2_dropShadow_47_1781"/>
<feBlend mode="normal" in="SourceGraphic" in2="effect2_dropShadow_47_1781" result="shape"/>
</filter>
<linearGradient id="paint0_linear_47_1781" x1="39.4852" y1="37.2116" x2="3.31371" y2="67.9434" gradientUnits="userSpaceOnUse">
<stop stop-color="#FF759F"/>
<stop offset="1" stop-color="#FF196E"/>
</linearGradient>
<linearGradient id="paint1_linear_47_1781" x1="28.2304" y1="25.7084" x2="59.6448" y2="63.643" gradientUnits="userSpaceOnUse">
<stop stop-color="white" stop-opacity="0.25"/>
<stop offset="1" stop-color="white" stop-opacity="0"/>
</linearGradient>
<linearGradient id="paint2_linear_47_1781" x1="71.4513" y1="20.4823" x2="65.2242" y2="23.4344" gradientUnits="userSpaceOnUse">
<stop stop-color="#FF759F"/>
<stop offset="1" stop-color="#FF196E"/>
</linearGradient>
<linearGradient id="paint3_linear_47_1781" x1="55.565" y1="40.0273" x2="27.3002" y2="41.5156" gradientUnits="userSpaceOnUse">
<stop stop-color="white"/>
<stop offset="1" stop-color="white" stop-opacity="0.2"/>
</linearGradient>
<linearGradient id="paint4_linear_47_1781" x1="35.9953" y1="39.0188" x2="44.2112" y2="55.4519" gradientUnits="userSpaceOnUse">
<stop stop-color="white" stop-opacity="0.25"/>
<stop offset="1" stop-color="white" stop-opacity="0"/>
</linearGradient>
</defs>
</svg>
