<?xml version="1.0" standalone="no"?>
<!DOCTYPE svg PUBLIC "-//W3C//DTD SVG 20010904//EN"
 "http://www.w3.org/TR/2001/REC-SVG-20010904/DTD/svg10.dtd">
<svg version="1.0" xmlns="http://www.w3.org/2000/svg"
 width="700.000000pt" height="700.000000pt" viewBox="0 0 700.000000 700.000000"
 preserveAspectRatio="xMidYMid meet">
<metadata>
Created by potrace 1.14, written by Peter Selinger 2001-2017
</metadata>
<g transform="translate(0.000000,700.000000) scale(0.100000,-0.100000)"
fill="#000000" stroke="none">
<path d="M3278 6996 c-1 -2 -42 -6 -89 -10 -47 -4 -95 -8 -105 -10 -10 -2 -48
-7 -84 -12 -36 -4 -67 -8 -70 -9 -3 -1 -25 -5 -50 -9 -25 -4 -101 -21 -170
-38 -69 -16 -134 -31 -146 -34 -39 -7 -228 -72 -344 -117 -148 -57 -402 -182
-515 -252 -58 -35 -259 -169 -274 -181 -9 -7 -52 -41 -96 -75 -426 -331 -813
-825 -1020 -1299 -25 -58 -50 -114 -55 -125 -45 -93 -150 -427 -176 -560 -2
-11 -10 -54 -19 -95 -29 -147 -35 -192 -52 -370 -4 -47 -8 -186 -8 -310 1
-207 4 -274 22 -415 3 -27 7 -59 8 -70 1 -11 3 -22 4 -25 0 -3 655 -5 1454 -5
798 1 1459 -1 1467 -3 13 -3 15 -114 15 -933 0 -703 -3 -929 -12 -929 -6 0
-67 16 -135 35 -313 90 -597 237 -853 439 -102 81 -317 289 -349 338 l-18 28
-377 -6 c-207 -3 -452 -7 -546 -9 -93 -2 -203 -4 -243 -4 l-73 -1 42 -78 c23
-42 64 -112 91 -155 26 -43 48 -81 48 -83 0 -3 4 -10 10 -17 5 -7 46 -64 91
-126 72 -103 179 -238 234 -297 240 -258 429 -422 682 -590 77 -52 145 -94
149 -94 4 0 15 -6 23 -14 25 -21 225 -123 356 -181 167 -73 397 -153 515 -180
8 -2 53 -12 100 -24 88 -21 282 -57 360 -65 282 -32 696 -28 917 8 21 4 54 9
73 11 19 3 46 7 60 10 14 3 41 8 60 11 19 4 71 15 115 26 44 10 87 21 96 23
223 51 591 200 823 334 49 28 91 51 93 51 10 0 268 180 353 247 152 119 324
280 450 422 36 41 70 79 76 85 29 30 185 242 240 326 208 317 371 684 460
1035 31 120 28 107 58 275 42 233 51 330 51 595 0 249 -16 487 -35 525 -7 13
-341 15 -2929 15 -1944 0 -2921 3 -2921 10 0 19 51 200 76 270 42 118 75 195
137 315 247 482 652 871 1145 1102 102 48 368 142 429 153 18 3 44 10 59 15
15 6 29 8 31 6 3 -3 15 -1 27 3 12 5 41 11 66 15 25 3 56 8 70 11 114 22 530
27 660 7 101 -16 200 -34 255 -48 302 -75 530 -174 785 -341 63 -42 117 -78
120 -82 3 -3 39 -33 80 -65 41 -33 133 -118 205 -190 l129 -131 618 0 c340 0
618 3 618 6 0 24 -153 282 -248 419 -540 774 -1404 1318 -2317 1456 -27 4 -52
8 -55 9 -3 1 -41 5 -85 10 -44 4 -89 10 -100 12 -25 4 -532 13 -537 9z m2606
-4025 c4 0 6 -11 3 -23 -13 -56 -17 -69 -37 -139 -109 -378 -330 -751 -609
-1029 -155 -155 -242 -226 -407 -333 -157 -103 -289 -169 -504 -252 -93 -36
-286 -89 -298 -81 -5 3 -9 1807 -3 1851 1 7 315 10 923 9 508 -1 927 -2 932
-3z"/>
</g>
</svg>
