<svg width="73" height="68" viewBox="0 0 73 68" fill="none" xmlns="http://www.w3.org/2000/svg">
<path d="M38.607 45.438C38.3997 45.5577 38.165 45.6301 37.9222 45.6418L30.0995 46.0195C27.8792 46.1257 25.9693 45.9091 24.2585 45.3598C20.5151 44.1595 17.3737 41.6581 15.4153 38.3127L8.96506 27.3041C8.22037 26.0337 8.38731 24.4112 9.3759 23.2657L18.2327 13.0337C18.7555 12.4206 19.4869 11.994 20.2864 11.8329L33.5426 9.1236C35.0253 8.81836 36.5227 9.46911 37.2648 10.7388L43.7197 21.7556C45.6771 25.0951 46.324 29.0541 45.5432 32.9034C45.1847 34.6692 44.4377 36.4394 43.2618 38.3157L39.1179 44.9406C38.9899 45.1472 38.8135 45.3166 38.607 45.438Z" fill="url(#paint0_linear_47_1990)"/>
<g filter="url(#filter0_f_47_1990)">
<path d="M35.1477 38.8789C35.0071 38.9601 34.8502 39.0133 34.6904 39.0295L29.5393 39.5527C28.0773 39.7006 26.8312 39.6388 25.7281 39.3654C23.3146 38.7683 21.3449 37.3502 20.1835 35.3702L16.3578 28.8548C15.916 28.1029 16.0861 27.101 16.778 26.3612L22.9752 19.7522C23.3413 19.3565 23.8376 19.0674 24.3685 18.9388L33.1746 16.7824C34.1597 16.5398 35.1188 16.8834 35.5588 17.635L39.3873 24.1552C40.5482 26.1317 40.8256 28.5371 40.1695 30.9284C39.8683 32.0254 39.3118 33.1396 38.4697 34.3348L35.5017 38.5546C35.41 38.6862 35.2878 38.7968 35.1477 38.8789Z" fill="#1EA51F" fill-opacity="0.5"/>
</g>
<g filter="url(#filter1_b_47_1990)">
<mask id="path-3-outside-1_47_1990" maskUnits="userSpaceOnUse" x="19.8224" y="9.38555" width="53.6738" height="60.3648" fill="black">
<rect fill="white" x="19.8224" y="9.38555" width="53.6738" height="60.3648"/>
<path d="M42.8722 64.7115C42.5575 64.6631 42.2539 64.5424 41.9926 64.3517L33.5691 58.2066C31.1791 56.4615 29.3798 54.6388 28.0641 52.6354C25.1839 48.2535 24.0118 43.017 24.7691 37.8885L27.2553 21.0076C27.5418 19.0593 29.0668 17.5055 31.0459 17.1364L48.7518 13.8619C49.8045 13.659 50.9183 13.8252 51.8811 14.3253L67.8795 22.5793C69.6708 23.5002 70.6807 25.4311 70.392 27.3765L67.9039 44.2698C67.1503 49.3913 64.5224 54.0638 60.5058 57.4283C58.663 58.9714 56.4137 60.1944 53.6315 61.1696L43.8162 64.6194C43.5114 64.7281 43.1873 64.7574 42.8722 64.7115Z"/>
</mask>
<path d="M42.8722 64.7115C42.5575 64.6631 42.2539 64.5424 41.9926 64.3517L33.5691 58.2066C31.1791 56.4615 29.3798 54.6388 28.0641 52.6354C25.1839 48.2535 24.0118 43.017 24.7691 37.8885L27.2553 21.0076C27.5418 19.0593 29.0668 17.5055 31.0459 17.1364L48.7518 13.8619C49.8045 13.659 50.9183 13.8252 51.8811 14.3253L67.8795 22.5793C69.6708 23.5002 70.6807 25.4311 70.392 27.3765L67.9039 44.2698C67.1503 49.3913 64.5224 54.0638 60.5058 57.4283C58.663 58.9714 56.4137 60.1944 53.6315 61.1696L43.8162 64.6194C43.5114 64.7281 43.1873 64.7574 42.8722 64.7115Z" fill="#72DC60" fill-opacity="0.35"/>
<path d="M42.7202 65.6999C43.2661 65.7838 43.7767 65.4094 43.8606 64.8635C43.9446 64.3176 43.5701 63.8071 43.0243 63.7231L42.7202 65.6999ZM41.9926 64.3517L42.582 63.5439L42.5819 63.5438L41.9926 64.3517ZM33.5691 58.2066L32.9794 59.0142L32.9797 59.0145L33.5691 58.2066ZM28.0641 52.6354L28.9 52.0864L28.8997 52.0861L28.0641 52.6354ZM24.7691 37.8885L25.7584 38.0345L25.7584 38.0342L24.7691 37.8885ZM27.2553 21.0076L28.2446 21.1533L28.2446 21.1531L27.2553 21.0076ZM31.0459 17.1364L30.8641 16.1531L30.8626 16.1534L31.0459 17.1364ZM48.7518 13.8619L48.9337 14.8453L48.9411 14.8438L48.7518 13.8619ZM51.8811 14.3253L51.4202 15.2127L51.4226 15.214L51.8811 14.3253ZM67.8795 22.5793L67.421 23.468L67.4223 23.4686L67.8795 22.5793ZM70.392 27.3765L69.4029 27.2297L69.4027 27.2308L70.392 27.3765ZM67.9039 44.2698L66.9146 44.1241L66.9146 44.1242L67.9039 44.2698ZM60.5058 57.4283L61.1479 58.195L61.148 58.1949L60.5058 57.4283ZM53.6315 61.1696L53.3007 60.2259L53.2999 60.2262L53.6315 61.1696ZM43.8162 64.6194L43.4846 63.676L43.4802 63.6775L43.8162 64.6194ZM43.0164 63.7219C42.4699 63.6423 41.9623 64.0208 41.8827 64.5673C41.8031 65.1138 42.1816 65.6214 42.7281 65.701L43.0164 63.7219ZM43.0243 63.7231C42.8598 63.6978 42.7078 63.6357 42.582 63.5439L41.4032 65.1595C41.8001 65.4492 42.2553 65.6284 42.7202 65.6999L43.0243 63.7231ZM42.5819 63.5438L34.1584 57.3987L32.9797 59.0145L41.4032 65.1596L42.5819 63.5438ZM34.1588 57.399C31.8442 55.7089 30.1366 53.9695 28.9 52.0864L27.2282 53.1843C28.623 55.3081 30.514 57.214 32.9794 59.0142L34.1588 57.399ZM28.8997 52.0861C26.1524 47.9064 25.0374 42.9168 25.7584 38.0345L23.7798 37.7424C22.9861 43.1172 24.2154 48.6007 27.2285 53.1846L28.8997 52.0861ZM25.7584 38.0342L28.2446 21.1533L26.2659 20.8619L23.7798 37.7428L25.7584 38.0342ZM28.2446 21.1531C28.4669 19.642 29.6555 18.413 31.2293 18.1195L30.8626 16.1534C28.478 16.5981 26.6168 18.4766 26.2659 20.8621L28.2446 21.1531ZM31.2278 18.1198L48.9337 14.8452L48.57 12.8786L30.8641 16.1531L31.2278 18.1198ZM48.9411 14.8438C49.7685 14.6843 50.6535 14.8145 51.4202 15.2127L52.3421 13.4379C51.1831 12.8359 49.8406 12.6336 48.5626 12.88L48.9411 14.8438ZM51.4226 15.214L67.421 23.468L68.338 21.6906L52.3396 13.4366L51.4226 15.214ZM67.4223 23.4686C68.8444 24.1997 69.6268 25.7209 69.4029 27.2297L71.3812 27.5233C71.7347 25.1413 70.4971 22.8006 68.3367 21.6899L67.4223 23.4686ZM69.4027 27.2308L66.9146 44.1241L68.8933 44.4155L71.3814 27.5222L69.4027 27.2308ZM66.9146 44.1242C66.1972 48.9997 63.695 53.4524 59.8637 56.6617L61.148 58.1949C65.3498 54.6751 68.1035 49.7828 68.8933 44.4154L66.9146 44.1242ZM59.8638 56.6616C58.1318 58.112 55.9946 59.2816 53.3007 60.2259L53.9623 62.1133C56.8327 61.1072 59.1942 59.8309 61.1479 58.195L59.8638 56.6616ZM53.2999 60.2262L43.4846 63.676L44.1478 65.5628L53.9631 62.1131L53.2999 60.2262ZM43.4802 63.6775C43.3338 63.7298 43.1749 63.745 43.0164 63.7219L42.7281 65.701C43.1998 65.7698 43.689 65.7265 44.1522 65.5613L43.4802 63.6775Z" fill="url(#paint1_linear_47_1990)" mask="url(#path-3-outside-1_47_1990)"/>
</g>
<g filter="url(#filter2_bd_47_1990)">
<path d="M43.9235 44.8958C43.4319 44.8228 42.9678 44.5703 42.6451 44.1482L38.4941 38.7138C37.8538 37.8704 38.0278 36.6879 38.885 36.0697C39.7426 35.4491 40.9591 35.6285 41.6024 36.4698L44.5895 40.3783L54.4457 33.2561C55.3059 32.6358 56.5224 32.8153 57.1631 33.6562C57.8059 34.5 57.6315 35.6849 56.7747 36.3006L45.3625 44.5483C44.9322 44.8596 44.4151 44.9689 43.9235 44.8958Z" fill="url(#paint2_linear_47_1990)"/>
<path d="M38.9435 36.1509L38.9437 36.1508C39.7573 35.5619 40.9126 35.7322 41.5229 36.5305L44.51 40.439L44.5691 40.5163L44.648 40.4593L54.5042 33.3372C55.3206 32.7485 56.4758 32.9192 57.0835 33.7168C57.6925 34.5161 57.5271 35.6368 56.7163 36.2194L56.7161 36.2195L45.3039 44.4672L45.3038 44.4672C44.8959 44.7625 44.4054 44.8664 43.9382 44.7969C43.4706 44.7274 43.0305 44.4876 42.7246 44.0875C42.7246 44.0875 42.7246 44.0875 42.7245 44.0875L38.5738 38.6533C38.5737 38.6533 38.5737 38.6532 38.5737 38.6532C37.9672 37.8543 38.1322 36.736 38.9435 36.1509Z" stroke="url(#paint3_linear_47_1990)" stroke-opacity="0.5" stroke-width="0.2"/>
</g>
<defs>
<filter id="filter0_f_47_1990" x="0.114136" y="0.705444" width="56.4034" height="54.9254" filterUnits="userSpaceOnUse" color-interpolation-filters="sRGB">
<feFlood flood-opacity="0" result="BackgroundImageFix"/>
<feBlend mode="normal" in="SourceGraphic" in2="BackgroundImageFix" result="shape"/>
<feGaussianBlur stdDeviation="8" result="effect1_foregroundBlur_47_1990"/>
</filter>
<filter id="filter1_b_47_1990" x="-0.455566" y="-11.2225" width="95.8966" height="100.955" filterUnits="userSpaceOnUse" color-interpolation-filters="sRGB">
<feFlood flood-opacity="0" result="BackgroundImageFix"/>
<feGaussianBlur in="BackgroundImageFix" stdDeviation="12"/>
<feComposite in2="SourceAlpha" operator="in" result="effect1_backgroundBlur_47_1990"/>
<feBlend mode="normal" in="SourceGraphic" in2="effect1_backgroundBlur_47_1990" result="shape"/>
</filter>
<filter id="filter2_bd_47_1990" x="23.1082" y="17.8868" width="49.4427" height="42.0309" filterUnits="userSpaceOnUse" color-interpolation-filters="sRGB">
<feFlood flood-opacity="0" result="BackgroundImageFix"/>
<feGaussianBlur in="BackgroundImageFix" stdDeviation="7.5"/>
<feComposite in2="SourceAlpha" operator="in" result="effect1_backgroundBlur_47_1990"/>
<feColorMatrix in="SourceAlpha" type="matrix" values="0 0 0 0 0 0 0 0 0 0 0 0 0 0 0 0 0 0 127 0" result="hardAlpha"/>
<feOffset dx="5" dy="5"/>
<feGaussianBlur stdDeviation="5"/>
<feColorMatrix type="matrix" values="0 0 0 0 0.454902 0 0 0 0 0.870588 0 0 0 0 0.376471 0 0 0 0.5 0"/>
<feBlend mode="normal" in2="effect1_backgroundBlur_47_1990" result="effect2_dropShadow_47_1990"/>
<feBlend mode="normal" in="SourceGraphic" in2="effect2_dropShadow_47_1990" result="shape"/>
</filter>
<linearGradient id="paint0_linear_47_1990" x1="33.469" y1="4.00002" x2="23.4193" y2="41.4891" gradientUnits="userSpaceOnUse">
<stop stop-color="#9BF763"/>
<stop offset="1" stop-color="#26AB5B"/>
</linearGradient>
<linearGradient id="paint1_linear_47_1990" x1="34.834" y1="17.5054" x2="62.5956" y2="57.4715" gradientUnits="userSpaceOnUse">
<stop stop-color="white" stop-opacity="0.25"/>
<stop offset="1" stop-color="white" stop-opacity="0"/>
</linearGradient>
<linearGradient id="paint2_linear_47_1990" x1="56.122" y1="35.4413" x2="35.26" y2="33.186" gradientUnits="userSpaceOnUse">
<stop stop-color="white"/>
<stop offset="1" stop-color="white" stop-opacity="0.2"/>
</linearGradient>
<linearGradient id="paint3_linear_47_1990" x1="40.5079" y1="35.1815" x2="56.2982" y2="37.7331" gradientUnits="userSpaceOnUse">
<stop stop-color="white"/>
<stop offset="1" stop-color="white" stop-opacity="0"/>
</linearGradient>
</defs>
</svg>
