<svg width="80" height="79" viewBox="0 0 80 79" fill="none" xmlns="http://www.w3.org/2000/svg">
<g filter="url(#filter0_b_47_1973)">
<path d="M66.5154 39.7577C66.5154 54.5359 54.5359 66.5154 39.7577 66.5154C24.9794 66.5154 13 54.5359 13 39.7577C13 24.9821 24.9794 13 39.7577 13C54.5359 13 66.5154 24.9821 66.5154 39.7577Z" fill="url(#paint0_linear_47_1973)"/>
</g>
<g filter="url(#filter1_f_47_1973)">
<path d="M39.8269 22.3417C30.3252 22.3417 22.6136 30.0549 22.6136 39.555C22.6136 49.0584 30.3252 56.7683 39.8269 56.7683C49.3459 56.7683 57.0402 49.0584 57.0402 39.555C57.0402 30.0549 49.3459 22.3417 39.8269 22.3417Z" fill="#FF3D22"/>
</g>
<g filter="url(#filter2_b_47_1973)">
<path d="M77 50.2423C77 65.0206 65.0206 77 50.2423 77C35.464 77 23.4846 65.0206 23.4846 50.2423C23.4846 35.4667 35.464 23.4846 50.2423 23.4846C65.0206 23.4846 77 35.4667 77 50.2423Z" fill="#FFAC95" fill-opacity="0.4"/>
<path d="M50.2423 77.5C65.2967 77.5 77.5 65.2967 77.5 50.2423C77.5 35.1906 65.2967 22.9846 50.2423 22.9846C35.1879 22.9846 22.9846 35.1906 22.9846 50.2423C22.9846 65.2967 35.1879 77.5 50.2423 77.5Z" stroke="url(#paint1_linear_47_1973)" stroke-linecap="round" stroke-linejoin="round"/>
</g>
<g filter="url(#filter3_bd_47_1973)">
<mask id="path-5-inside-1_47_1973" fill="white">
<path d="M60.5706 40.7701L56.2358 54.47C56.0753 55.0319 55.6204 55.4868 55.0585 55.65L41.4121 59.9286C40.5023 60.2256 39.6193 59.3399 39.9136 58.4301L44.1949 44.7034C44.3554 44.1415 44.8103 43.7134 45.3722 43.5261L59.0721 39.2449C60.0086 38.9505 60.8649 39.8335 60.5706 40.7701Z"/>
</mask>
<path d="M60.5706 40.7701L56.2358 54.47C56.0753 55.0319 55.6204 55.4868 55.0585 55.65L41.4121 59.9286C40.5023 60.2256 39.6193 59.3399 39.9136 58.4301L44.1949 44.7034C44.3554 44.1415 44.8103 43.7134 45.3722 43.5261L59.0721 39.2449C60.0086 38.9505 60.8649 39.8335 60.5706 40.7701Z" fill="url(#paint2_linear_47_1973)"/>
<path d="M56.2358 54.47L55.8543 54.3493L55.8512 54.3601L56.2358 54.47ZM55.0585 55.65L54.9469 55.2658L54.9388 55.2683L55.0585 55.65ZM41.4121 59.9286L41.2924 59.5468L41.2879 59.5483L41.4121 59.9286ZM39.9136 58.4301L40.2942 58.5533L40.2955 58.5492L39.9136 58.4301ZM44.1949 44.7034L44.5768 44.8226L44.5795 44.8133L44.1949 44.7034ZM45.3722 43.5261L45.2529 43.1442L45.2457 43.1466L45.3722 43.5261ZM59.0721 39.2449L59.1914 39.6267L59.1921 39.6265L59.0721 39.2449ZM60.1892 40.6494L55.8544 54.3493L56.6172 54.5907L60.9519 40.8907L60.1892 40.6494ZM55.8512 54.3601C55.7287 54.7889 55.3775 55.1408 54.9469 55.2659L55.17 56.0341C55.8633 55.8328 56.4218 55.2749 56.6204 54.5799L55.8512 54.3601ZM54.9388 55.2683L41.2924 59.5469L41.5317 60.3102L55.1781 56.0317L54.9388 55.2683ZM41.2879 59.5483C40.691 59.7432 40.0998 59.1541 40.2942 58.5533L39.533 58.307C39.1388 59.5256 40.3136 60.7079 41.5362 60.3088L41.2879 59.5483ZM40.2955 58.5492L44.5767 44.8225L43.813 44.5843L39.5318 58.311L40.2955 58.5492ZM44.5795 44.8133C44.6989 44.3953 45.0444 44.057 45.4987 43.9056L45.2457 43.1466C44.5762 43.3698 44.0119 43.8878 43.8102 44.5935L44.5795 44.8133ZM45.4915 43.9079L59.1914 39.6267L58.9528 38.8631L45.2529 43.1443L45.4915 43.9079ZM59.1921 39.6265C59.8078 39.4329 60.3903 40.0096 60.189 40.6501L60.9522 40.89C61.3395 39.6574 60.2095 38.4681 58.9522 38.8633L59.1921 39.6265Z" fill="url(#paint3_linear_47_1973)" mask="url(#path-5-inside-1_47_1973)"/>
</g>
<defs>
<filter id="filter0_b_47_1973" x="0" y="0" width="79.5154" height="79.5154" filterUnits="userSpaceOnUse" color-interpolation-filters="sRGB">
<feFlood flood-opacity="0" result="BackgroundImageFix"/>
<feGaussianBlur in="BackgroundImageFix" stdDeviation="6.5"/>
<feComposite in2="SourceAlpha" operator="in" result="effect1_backgroundBlur_47_1973"/>
<feBlend mode="normal" in="SourceGraphic" in2="effect1_backgroundBlur_47_1973" result="shape"/>
</filter>
<filter id="filter1_f_47_1973" x="0.613647" y="0.341675" width="78.4266" height="78.4266" filterUnits="userSpaceOnUse" color-interpolation-filters="sRGB">
<feFlood flood-opacity="0" result="BackgroundImageFix"/>
<feBlend mode="normal" in="SourceGraphic" in2="BackgroundImageFix" result="shape"/>
<feGaussianBlur stdDeviation="11" result="effect1_foregroundBlur_47_1973"/>
</filter>
<filter id="filter2_b_47_1973" x="7.48462" y="7.48462" width="85.5154" height="85.5154" filterUnits="userSpaceOnUse" color-interpolation-filters="sRGB">
<feFlood flood-opacity="0" result="BackgroundImageFix"/>
<feGaussianBlur in="BackgroundImageFix" stdDeviation="7.5"/>
<feComposite in2="SourceAlpha" operator="in" result="effect1_backgroundBlur_47_1973"/>
<feBlend mode="normal" in="SourceGraphic" in2="effect1_backgroundBlur_47_1973" result="shape"/>
</filter>
<filter id="filter3_bd_47_1973" x="24.856" y="24.1873" width="50.7736" height="50.7998" filterUnits="userSpaceOnUse" color-interpolation-filters="sRGB">
<feFlood flood-opacity="0" result="BackgroundImageFix"/>
<feGaussianBlur in="BackgroundImageFix" stdDeviation="7.5"/>
<feComposite in2="SourceAlpha" operator="in" result="effect1_backgroundBlur_47_1973"/>
<feColorMatrix in="SourceAlpha" type="matrix" values="0 0 0 0 0 0 0 0 0 0 0 0 0 0 0 0 0 0 127 0" result="hardAlpha"/>
<feOffset dx="5" dy="5"/>
<feGaussianBlur stdDeviation="5"/>
<feColorMatrix type="matrix" values="0 0 0 0 1 0 0 0 0 0.447059 0 0 0 0 0.368627 0 0 0 0.3 0"/>
<feBlend mode="normal" in2="effect1_backgroundBlur_47_1973" result="effect2_dropShadow_47_1973"/>
<feBlend mode="normal" in="SourceGraphic" in2="effect2_dropShadow_47_1973" result="shape"/>
</filter>
<linearGradient id="paint0_linear_47_1973" x1="43.6975" y1="43.3413" x2="-3.32593" y2="66.2051" gradientUnits="userSpaceOnUse">
<stop stop-color="#FFA78F"/>
<stop offset="1" stop-color="#F23E2C"/>
</linearGradient>
<linearGradient id="paint1_linear_47_1973" x1="32.0034" y1="29.7192" x2="66.1405" y2="71.9989" gradientUnits="userSpaceOnUse">
<stop stop-color="white" stop-opacity="0.25"/>
<stop offset="1" stop-color="white" stop-opacity="0"/>
</linearGradient>
<linearGradient id="paint2_linear_47_1973" x1="50.4871" y1="42.8157" x2="46.7925" y2="58.7663" gradientUnits="userSpaceOnUse">
<stop stop-color="white"/>
<stop offset="1" stop-color="white" stop-opacity="0.2"/>
</linearGradient>
<linearGradient id="paint3_linear_47_1973" x1="43.1628" y1="41.6105" x2="56.4343" y2="58.0269" gradientUnits="userSpaceOnUse">
<stop stop-color="white" stop-opacity="0.25"/>
<stop offset="1" stop-color="white" stop-opacity="0"/>
</linearGradient>
</defs>
</svg>
